<svg width="189" height="53" viewBox="0 0 189 53" fill="none" xmlns="http://www.w3.org/2000/svg">
<path d="M66.823 40.7672C59.4754 40.7672 55.1851 37.681 54.9879 31.9068H63.1246C63.4204 33.7984 64.2588 34.8437 66.7737 34.8437C68.9435 34.8437 69.9298 33.9975 69.9298 32.7033C69.9298 31.4588 68.697 30.8615 65.1464 30.3637C58.2425 29.4677 55.333 27.4269 55.333 22.0011C55.333 16.227 60.4123 13.4395 66.3792 13.4395C72.7406 13.4395 77.1788 15.6297 77.7706 21.8518H69.7818C69.4367 20.1096 68.4997 19.2634 66.4779 19.2634C64.5546 19.2634 63.5684 20.1096 63.5684 21.3043C63.5684 22.5487 64.7519 23.0465 67.9079 23.4447C75.0584 24.3407 78.5103 26.2322 78.5103 31.8073C78.5103 37.9797 73.9735 40.7672 66.823 40.7672ZM97.1863 48.8217V36.1C95.899 38.5847 93.0273 40.7215 89.1159 40.7215C83.1251 40.7215 78.2234 36.3981 78.2234 27.4035V27.0059C78.2234 18.1604 83.0756 13.4395 89.215 13.4395C93.2749 13.4395 95.7009 15.1787 97.1863 17.8125V14.1352H106.049V48.8217H97.1863ZM92.0386 33.8633C95.2066 33.8633 97.1562 31.6202 97.1562 27.1838V26.785C97.1562 22.3985 95.3528 20.0556 92.1361 20.0556C88.8707 20.0556 87.1161 22.2988 87.1161 26.8349V27.2336C87.1161 31.6202 89.0169 33.8633 92.0386 33.8633ZM116.778 40.4795C111.773 40.4795 108.057 37.4126 108.057 30.883V14.0148H116.927V29.4484C116.927 32.367 118.067 33.8015 120.594 33.8015C123.27 33.8015 125.004 32.2186 125.004 28.9043V14.0148H133.874V39.8859H125.004V35.8791C123.617 38.5503 121.089 40.4795 116.778 40.4795ZM143.465 40.7672C138.828 40.7672 134.735 38.4774 134.735 32.9521C134.735 26.8295 139.864 24.4402 148.446 24.4402H150.912V23.8429C150.912 21.354 150.32 19.7114 147.509 19.7114C145.092 19.7114 144.204 21.1549 144.007 22.7976H135.721C136.116 16.5256 140.999 13.4395 148.052 13.4395C155.154 13.4395 159.691 16.3763 159.691 23.2954V40.1698H151.109V37.1334C149.876 39.025 147.608 40.7672 143.465 40.7672ZM146.69 34.4387C149.209 34.4387 151.086 33.0221 151.086 30.8239V29.2608H148.764C145.208 29.2608 143.627 29.9446 143.627 32.0451C143.627 33.5105 144.615 34.4387 146.69 34.4387ZM171.731 40.7672C165.741 40.7672 160.839 36.4489 160.839 27.4649V27.0678C160.839 18.2327 165.691 13.5173 171.83 13.5173C175.89 13.5173 178.316 15.2545 179.802 17.8852V2.79602H188.664V40.1716H179.802V35.9525C178.514 38.6329 175.643 40.7672 171.731 40.7672ZM174.654 33.8633C177.822 33.8633 179.772 31.6202 179.772 27.1838V26.785C179.772 22.3985 177.968 20.0556 174.752 20.0556C171.486 20.0556 169.732 22.2988 169.732 26.8349V27.2336C169.732 31.6202 171.632 33.8633 174.654 33.8633Z" fill="url(#paint0_linear_112_587)"/>
<path fill-rule="evenodd" clip-rule="evenodd" d="M29.5548 0C26.0366 1.70712 20.4273 4.7734 16.7629 7.56839C7.81683 14.3898 0 21.7865 0 31.0593C0 40.874 7.67234 48.9031 19.5165 50.3724C21.8666 50.6631 19.8759 52.9066 19.8759 52.9066C19.8759 52.9066 21.4306 52.4054 22.4903 52.0451C22.7977 51.9403 23.3069 53 23.3069 53C23.3069 53 24.2608 51.9015 24.3604 51.9764C25.5072 52.8458 27.0408 53 27.0408 53C27.0408 53 25.0175 50.671 27.5376 50.3345C39.2179 48.771 46.7643 40.7938 46.7643 31.0593C46.7643 21.2897 40.9004 14.4682 29.5231 7.13325C28.0539 6.18632 27.8873 3.51202 29.5548 0ZM25.0959 9.83311C31.1369 15.2971 34.1574 22.1247 34.1574 28.9523C34.1574 35.779 31.1369 42.6066 25.0959 48.0707C33.6306 37.6509 35.4223 21.3698 25.0959 9.83311ZM21.6227 9.83134C15.5817 15.2954 12.5612 22.123 12.5612 28.9506C12.5612 35.7782 15.5817 42.6049 21.6227 48.0689C13.0871 37.6491 11.2963 21.3681 21.6227 9.83134ZM23.3597 47.4179C23.8169 41.1382 24.0459 34.8585 24.0459 28.578C24.0459 22.2983 23.8169 16.0186 23.3597 9.73886C22.027 22.2983 22.027 34.8585 23.3597 47.4179ZM30.8911 11.8794C37.5971 17.472 41.4694 23.9146 41.7821 30.1344C42.094 36.3534 38.8462 42.3494 31.3122 47.048C44.5895 35.5112 41.6385 22.7651 30.8911 11.8794ZM15.8274 11.8785C9.12138 17.4702 5.24908 23.9129 4.93637 30.1327C4.62367 36.3516 7.87143 42.3477 15.4055 47.0462C2.12906 35.5095 5.07909 22.7633 15.8274 11.8785Z" fill="url(#paint1_linear_112_587)"/>
<defs>
<linearGradient id="paint0_linear_112_587" x1="54.9879" y1="25.8091" x2="188.663" y2="25.8091" gradientUnits="userSpaceOnUse">
<stop stop-color="#FF4C1D"/>
<stop offset="1" stop-color="#9B0063"/>
</linearGradient>
<linearGradient id="paint1_linear_112_587" x1="0" y1="31.5826" x2="232.586" y2="31.5826" gradientUnits="userSpaceOnUse">
<stop stop-color="#FF4C1D"/>
<stop offset="1" stop-color="#9B0063"/>
</linearGradient>
</defs>
</svg>
